<?xml version="1.0" encoding="UTF-8"?>
<svg version="1.1" xmlns="http://www.w3.org/2000/svg" width="200" height="200">
<path d="M0 0 C0.97125824 -0.00960754 1.94251648 -0.01921509 2.94320679 -0.02911377 C4.00044952 -0.03336365 5.05769226 -0.03761353 6.14697266 -0.04199219 C7.22604889 -0.04769226 8.30512512 -0.05339233 9.41690063 -0.05926514 C11.70516982 -0.06873181 13.99345274 -0.0752557 16.28173828 -0.07910156 C19.78914093 -0.08880661 23.29595773 -0.11981462 26.80322266 -0.15136719 C29.02196916 -0.15789686 31.24071987 -0.16314747 33.45947266 -0.16699219 C35.03926407 -0.18551239 35.03926407 -0.18551239 36.65097046 -0.20440674 C37.62853302 -0.20140564 38.60609558 -0.19840454 39.61328125 -0.1953125 C40.47408295 -0.19895813 41.33488464 -0.20260376 42.22177124 -0.20635986 C44.94317045 0.24530006 45.77759163 0.9944508 47.43603516 3.16113281 C48.56884766 6.05175781 48.56884766 6.05175781 49.56103516 9.41113281 C49.89361328 10.50941406 50.22619141 11.60769531 50.56884766 12.73925781 C52.42437861 20.06108266 52.51535679 26.82916847 52.31494141 34.34472656 C52.27952492 35.92798485 52.27952492 35.92798485 52.24339294 37.54322815 C52.16717657 40.89518102 52.08297253 44.24687796 51.99853516 47.59863281 C51.94527236 49.87921949 51.89253229 52.15981844 51.84033203 54.44042969 C51.71161871 60.01415373 51.57635694 65.58768958 51.43603516 71.16113281 C52.75603516 71.16113281 54.07603516 71.16113281 55.43603516 71.16113281 C55.46068365 76.55460269 55.47887046 81.94804007 55.4909668 87.34155273 C55.49600747 89.17782156 55.50283992 91.01408635 55.51147461 92.8503418 C55.52355188 95.48389683 55.52926597 98.11739898 55.53369141 100.75097656 C55.53885269 101.57701889 55.54401398 102.40306122 55.54933167 103.25413513 C55.5495272 105.22349649 55.49807667 107.19274895 55.43603516 109.16113281 C54.43603516 110.16113281 54.43603516 110.16113281 52.30297852 110.2746582 C51.38653564 110.26942139 50.47009277 110.26418457 49.52587891 110.25878906 C48.53652344 110.25556641 47.54716797 110.25234375 46.52783203 110.24902344 C45.48691406 110.24064453 44.44599609 110.23226562 43.37353516 110.22363281 C42.32875 110.21912109 41.28396484 110.21460938 40.20751953 110.20996094 C37.61696856 110.19813194 35.02652957 110.18164971 32.43603516 110.16113281 C32.43825577 110.74773178 32.44047638 111.33433075 32.44276428 111.93870544 C32.46481726 118.02138665 32.4799418 124.10405658 32.4909668 130.18676758 C32.49600841 132.45955873 32.50284153 134.73234661 32.51147461 137.00512695 C32.52354776 140.26416833 32.52926503 143.52316698 32.53369141 146.78222656 C32.53885269 147.8051329 32.54401398 148.82803925 32.54933167 149.88194275 C32.5494072 150.82284256 32.54948273 151.76374237 32.54956055 152.7331543 C32.55178116 153.56588364 32.55400177 154.39861298 32.55628967 155.25657654 C32.43603516 157.16113281 32.43603516 157.16113281 31.43603516 158.16113281 C28.57335949 158.23438449 25.73531616 158.25351486 22.87353516 158.22363281 C22.06722656 158.21912109 21.26091797 158.21460938 20.43017578 158.20996094 C18.43209759 158.19813799 16.43405733 158.18020195 14.43603516 158.16113281 C13.24908097 155.78722445 13.31527682 154.3586833 13.32250977 151.71142578 C13.3225853 150.79062225 13.32266083 149.86981873 13.32273865 148.92111206 C13.32789993 147.92524078 13.33306122 146.92936951 13.33837891 145.90332031 C13.33979385 144.88513214 13.3412088 143.86694397 13.34266663 142.81790161 C13.34827615 139.55728246 13.36083028 136.2967313 13.37353516 133.03613281 C13.37854893 130.82910255 13.38311205 128.62207122 13.38720703 126.41503906 C13.39739894 120.99702287 13.41697253 115.5791542 13.43603516 110.16113281 C6.17603516 110.16113281 -1.08396484 110.16113281 -8.56396484 110.16113281 C-10.14553561 106.99799128 -9.70585834 103.59823739 -9.69677734 100.12597656 C-9.69773407 99.33212051 -9.6986908 98.53826447 -9.69967651 97.72035217 C-9.70035735 96.04167603 -9.69850974 94.36299726 -9.69433594 92.68432617 C-9.68897926 90.10557184 -9.69428777 87.52699113 -9.70068359 84.94824219 C-9.70002293 83.31998659 -9.69874202 81.69173111 -9.69677734 80.06347656 C-9.69880157 79.2874559 -9.70082581 78.51143524 -9.70291138 77.7118988 C-9.67892068 72.27608864 -9.67892068 72.27608864 -8.56396484 71.16113281 C-5.5341868 71.07242009 -2.52729462 71.04593931 0.50244141 71.06347656 C1.4110643 71.06489151 2.31968719 71.06630646 3.25584412 71.06776428 C6.17010736 71.07338088 9.08429496 71.08593616 11.99853516 71.09863281 C13.96923718 71.10364568 15.93994039 71.10820895 17.91064453 71.11230469 C22.75247074 71.1233557 27.59424011 71.14063143 32.43603516 71.16113281 C32.42443359 69.86820312 32.41283203 68.57527344 32.40087891 67.24316406 C32.39148581 65.48665511 32.38238727 63.73014457 32.37353516 61.97363281 C32.36515625 61.12865234 32.35677734 60.28367188 32.34814453 59.41308594 C32.32122827 52.22644534 32.87946696 45.39651935 33.43603516 38.16113281 C21.22603516 38.16113281 9.01603516 38.16113281 -3.56396484 38.16113281 C-4.67386524 28.24139804 -5.76013417 18.45961254 -5.75146484 8.47363281 C-5.75210938 7.74990479 -5.75275391 7.02617676 -5.75341797 6.28051758 C-5.69331372 0.66828373 -5.560424 0.04418776 0 0 Z " fill="#3E7F25" transform="translate(141.56396484375,18.8388671875)"/>
<path d="M0 0 C1.29997925 0.00303635 1.29997925 0.00303635 2.6262207 0.00613403 C3.51027588 0.00517731 4.39433105 0.00422058 5.30517578 0.00323486 C7.178142 0.00255302 9.05111056 0.0044076 10.92407227 0.00857544 C13.80140458 0.01392364 16.67858078 0.0086306 19.5559082 0.00222778 C21.37101272 0.00288856 23.18611713 0.00416972 25.0012207 0.00613403 C25.86787354 0.0041098 26.73452637 0.00208557 27.62744141 0 C33.69877061 0.02399644 33.69877061 0.02399644 34.8137207 1.13894653 C35.1287508 3.60693564 35.38578579 6.0563226 35.6027832 8.53347778 C35.67032806 9.27724167 35.73787292 10.02100555 35.8074646 10.78730774 C35.94923229 12.36500794 36.08861768 13.94292371 36.22583008 15.52102661 C36.43698209 17.93159808 36.66003993 20.34086679 36.8840332 22.75027466 C37.02017907 24.28211106 37.15561861 25.81401045 37.2902832 27.34597778 C37.35792877 28.06590408 37.42557434 28.78583038 37.49526978 29.52757263 C37.7968228 33.11576546 37.70084911 35.59043292 36.8137207 39.13894653 C29.5537207 39.13894653 22.2937207 39.13894653 14.8137207 39.13894653 C15.1437207 63.88894653 15.4737207 88.63894653 15.8137207 114.13894653 C22.7437207 114.13894653 29.6737207 114.13894653 36.8137207 114.13894653 C39.39661861 116.72184444 39.05128033 118.46188677 39.06596375 121.98112488 C39.05877823 122.77699509 39.05159271 123.5728653 39.04418945 124.39285278 C39.04373123 125.20890488 39.04327301 126.02495697 39.0428009 126.86573792 C39.03977814 128.59150648 39.03189112 130.31727231 39.01953125 132.04299927 C39.00127048 134.69421986 38.99902157 137.34509149 38.99926758 139.99636841 C38.99435264 141.67019957 38.98852443 143.34402836 38.98168945 145.01785278 C38.98057663 145.81574722 38.97946381 146.61364166 38.97831726 147.43571472 C38.92976971 153.02289752 38.92976971 153.02289752 37.8137207 154.13894653 C33.02360963 154.45425525 28.23108675 154.49571324 23.43164062 154.54397583 C21.81651424 154.56555411 20.20150475 154.59965601 18.58691406 154.64651489 C16.25964104 154.71347135 13.9347893 154.74096355 11.60668945 154.76004028 C10.5268 154.80178627 10.5268 154.80178627 9.4250946 154.84437561 C7.37304688 154.83596802 7.37304688 154.83596802 3.8137207 154.13894653 C-3.60130479 146.5523631 -4.78018608 134.29692619 -4.70043945 124.21096802 C-4.70756454 123.08571716 -4.71468964 121.96046631 -4.72203064 120.80111694 C-4.74116375 117.12057435 -4.73305971 113.44061539 -4.7253418 109.76004028 C-4.73526047 107.18036571 -4.74720614 104.60069821 -4.76107788 102.02104187 C-4.79005234 95.94295854 -4.8030178 89.86506014 -4.80665433 83.78691489 C-4.81372099 72.26472502 -4.84930939 60.742704 -4.90009689 49.22062874 C-4.91261818 45.45233763 -4.9119297 41.68421637 -4.90982056 37.91590881 C-4.9164052 35.58978141 -4.92341231 33.26365516 -4.9309082 30.93753052 C-4.92678421 29.90189468 -4.92266022 28.86625885 -4.91841125 27.79924011 C-4.95090816 21.86936053 -5.52544185 16.34115254 -6.73944664 10.5332346 C-7.34107658 7.30948772 -7.39943399 4.40731846 -7.1862793 1.13894653 C-5.29004728 -0.75728549 -2.5225757 0.00997028 0 0 Z " fill="#B8DE90" transform="translate(72.186279296875,18.861053466796875)"/>
<path d="M0 0 C1.08590927 -0.00855011 1.08590927 -0.00855011 2.1937561 -0.01727295 C3.72876518 -0.0267362 5.2637947 -0.03326217 6.79882812 -0.03710938 C9.14749675 -0.0468066 11.49528731 -0.07781229 13.84375 -0.109375 C15.33332812 -0.11590569 16.82291252 -0.1211559 18.3125 -0.125 C19.01571381 -0.1373468 19.71892761 -0.1496936 20.44345093 -0.16241455 C25.30226474 -0.14022785 25.30226474 -0.14022785 27.68554688 1.54077148 C29.3498225 4.0478628 30.07032266 6.6356154 30.9140625 9.515625 C31.24664062 10.62550781 31.57921875 11.73539063 31.921875 12.87890625 C33.79010657 20.0404606 33.83253138 26.47226362 33.5390625 33.828125 C33.47235352 35.61621582 33.47235352 35.61621582 33.40429688 37.44042969 C32.83959702 51.06466406 31.84052798 64.66047426 30.87817383 78.26123047 C30.20454858 87.82240583 29.56719303 97.37299745 29.2265625 106.953125 C28.90820828 115.76497543 28.48998173 124.56760761 27.97805786 133.37023926 C27.89433529 134.83155669 27.81394283 136.29306907 27.73703003 137.75476074 C27.62933814 139.78752929 27.50832347 141.81957879 27.38671875 143.8515625 C27.31976807 145.02895996 27.25281738 146.20635742 27.18383789 147.41943359 C26.7890625 150.203125 26.7890625 150.203125 24.7890625 152.203125 C22.09224799 152.85646213 19.45352008 153.40967592 16.7265625 153.890625 C15.98083984 154.03306641 15.23511719 154.17550781 14.46679688 154.32226562 C12.58271725 154.66622567 10.68619139 154.94051026 8.7890625 155.203125 C7.08823897 153.50230147 7.6467905 151.37187378 7.6341095 149.10247803 C7.63926826 148.01534515 7.63926826 148.01534515 7.64453125 146.90625 C7.64688278 146.14652893 7.64923431 145.38680786 7.6516571 144.60406494 C7.72674353 136.28294627 8.29304343 128.00649167 8.90023804 119.71005249 C9.25471603 114.85584799 9.58833294 110.00021267 9.921875 105.14453125 C10.02785255 103.60675774 10.02785255 103.60675774 10.13597107 102.03791809 C11.02367339 88.99520498 11.74927396 75.94309202 12.4765625 62.890625 C12.54299957 61.70118286 12.60943665 60.51174072 12.67788696 59.28625488 C13.05139316 52.59204866 13.42205932 45.89769088 13.7890625 39.203125 C12.93356812 39.21098022 12.93356812 39.21098022 12.06079102 39.21899414 C9.49105927 39.23970721 6.92134503 39.2527669 4.3515625 39.265625 C3.45373047 39.27400391 2.55589844 39.28238281 1.63085938 39.29101562 C0.34985352 39.29584961 0.34985352 39.29584961 -0.95703125 39.30078125 C-1.74779053 39.30601807 -2.5385498 39.31125488 -3.35327148 39.31665039 C-5.2109375 39.203125 -5.2109375 39.203125 -6.2109375 38.203125 C-6.73663673 34.85022652 -6.97455905 31.45792138 -7.2734375 28.078125 C-7.36214111 27.08723877 -7.45084473 26.09635254 -7.54223633 25.07543945 C-8.21231201 17.13668088 -8.72437414 9.16736311 -8.2109375 1.203125 C-6.2738356 -0.7339769 -2.64294007 0.0158812 0 0 Z " fill="#B3DC87" transform="translate(8.2109375,18.796875)"/>
<path d="M0 0 C0.78552246 0.01047363 1.57104492 0.02094727 2.38037109 0.03173828 C3.23115234 0.03818359 4.08193359 0.04462891 4.95849609 0.05126953 C6.29267578 0.07640625 6.29267578 0.07640625 7.65380859 0.10205078 C8.99958984 0.11558594 8.99958984 0.11558594 10.37255859 0.12939453 C12.59157445 0.15300108 14.81005937 0.18592768 17.02880859 0.22705078 C18.43417255 3.03777868 18.15153959 5.35868906 18.14906311 8.5038147 C18.14991754 9.15480837 18.15077196 9.80580205 18.15165228 10.4765228 C18.15330526 12.66764437 18.14778868 14.85869013 18.14233398 17.04980469 C18.14205205 18.61658222 18.14220997 20.18335988 18.14277649 21.75013733 C18.14306421 26.01229116 18.13717156 30.27441703 18.13020253 34.53656435 C18.12396479 38.98754009 18.12336486 43.43851642 18.12217712 47.88949585 C18.11906505 56.32197726 18.11085333 64.75444576 18.10082763 73.18692148 C18.08966265 82.78533244 18.08415507 92.38374401 18.0791322 101.98215985 C18.06867062 121.73046424 18.05087289 141.47875624 18.02880859 161.22705078 C12.08880859 161.22705078 6.14880859 161.22705078 0.02880859 161.22705078 C0.02294235 159.54401352 0.01707611 157.86097626 0.0110321 156.12693787 C-0.04631713 140.22335911 -0.11896847 124.31992598 -0.20690632 108.41648769 C-0.25172308 100.24145745 -0.29116961 92.0664694 -0.31762695 83.89135742 C-0.34072214 76.75945512 -0.37424675 69.62768794 -0.41989297 62.49589306 C-0.44367123 58.72552324 -0.46250012 54.95528595 -0.46880531 51.18484306 C-0.47492686 47.62329508 -0.49517512 44.06208552 -0.52546692 40.50066376 C-0.53821437 38.59633343 -0.53669672 36.69192357 -0.5344696 34.78755188 C-0.61650634 27.11029685 -1.60114796 20.13480879 -3.33014202 12.68989658 C-3.99672916 9.08909991 -4.22016004 5.87987753 -3.97119141 2.22705078 C-1.97119141 0.22705078 -1.97119141 0.22705078 0 0 Z " fill="#B8DE90" transform="translate(111.97119140625,15.77294921875)"/>
<path d="M0 0 C0.78552246 0.01047363 1.57104492 0.02094727 2.38037109 0.03173828 C3.23115234 0.03818359 4.08193359 0.04462891 4.95849609 0.05126953 C6.29267578 0.07640625 6.29267578 0.07640625 7.65380859 0.10205078 C8.99958984 0.11558594 8.99958984 0.11558594 10.37255859 0.12939453 C12.59157445 0.15300108 14.81005937 0.18592768 17.02880859 0.22705078 C18.43417255 3.03777868 18.15153959 5.35868906 18.14906311 8.5038147 C18.14991754 9.15480837 18.15077196 9.80580205 18.15165228 10.4765228 C18.15330526 12.66764437 18.14778868 14.85869013 18.14233398 17.04980469 C18.14205205 18.61658222 18.14220997 20.18335988 18.14277649 21.75013733 C18.14306421 26.01229116 18.13717156 30.27441703 18.13020253 34.53656435 C18.12396479 38.98754009 18.12336486 43.43851642 18.12217712 47.88949585 C18.11906505 56.32197726 18.11085333 64.75444576 18.10082763 73.18692148 C18.08966265 82.78533244 18.08415507 92.38374401 18.0791322 101.98215985 C18.06867062 121.73046424 18.05087289 141.47875624 18.02880859 161.22705078 C12.08880859 161.22705078 6.14880859 161.22705078 0.02880859 161.22705078 C0.02294235 159.54401352 0.01707611 157.86097626 0.0110321 156.12693787 C-0.04631713 140.22335911 -0.11896847 124.31992598 -0.20690632 108.41648769 C-0.25172308 100.24145745 -0.29116961 92.0664694 -0.31762695 83.89135742 C-0.34072214 76.75945512 -0.37424675 69.62768794 -0.41989297 62.49589306 C-0.44367123 58.72552324 -0.46250012 54.95528595 -0.46880531 51.18484306 C-0.47492686 47.62329508 -0.49517512 44.06208552 -0.52546692 40.50066376 C-0.53821437 38.59633343 -0.53669672 36.69192357 -0.5344696 34.78755188 C-0.61650634 27.11029685 -1.60114796 20.13480879 -3.33014202 12.68989658 C-3.99672916 9.08909991 -4.22016004 5.87987753 -3.97119141 2.22705078 C-1.97119141 0.22705078 -1.97119141 0.22705078 0 0 Z " fill="#B8DE90" transform="translate(45.97119140625,15.77294921875)"/>
<path d="M0 0 C1.29997925 0.00303635 1.29997925 0.00303635 2.6262207 0.00613403 C3.51027588 0.00517731 4.39433105 0.00422058 5.30517578 0.00323486 C7.178142 0.00255302 9.05111056 0.0044076 10.92407227 0.00857544 C13.80140458 0.01392364 16.67858078 0.0086306 19.5559082 0.00222778 C21.37101272 0.00288856 23.18611713 0.00416972 25.0012207 0.00613403 C25.86787354 0.0041098 26.73452637 0.00208557 27.62744141 0 C33.69877061 0.02399644 33.69877061 0.02399644 34.8137207 1.13894653 C35.1287508 3.60693564 35.38578579 6.0563226 35.6027832 8.53347778 C35.67032806 9.27724167 35.73787292 10.02100555 35.8074646 10.78730774 C35.94923229 12.36500794 36.08861768 13.94292371 36.22583008 15.52102661 C36.43698209 17.93159808 36.66003993 20.34086679 36.8840332 22.75027466 C37.02017907 24.28211106 37.15561861 25.81401045 37.2902832 27.34597778 C37.35792877 28.06590408 37.42557434 28.78583038 37.49526978 29.52757263 C37.7968228 33.11576546 37.70084911 35.59043292 36.8137207 39.13894653 C29.5537207 39.13894653 22.2937207 39.13894653 14.8137207 39.13894653 C15.1437207 63.88894653 15.4737207 88.63894653 15.8137207 114.13894653 C22.7437207 114.13894653 29.6737207 114.13894653 36.8137207 114.13894653 C39.39661861 116.72184444 39.05128033 118.46188677 39.06596375 121.98112488 C39.05877823 122.77699509 39.05159271 123.5728653 39.04418945 124.39285278 C39.04373123 125.20890488 39.04327301 126.02495697 39.0428009 126.86573792 C39.03977814 128.59150648 39.03189112 130.31727231 39.01953125 132.04299927 C39.00127048 134.69421986 38.99902157 137.34509149 38.99926758 139.99636841 C38.99435264 141.67019957 38.98852443 143.34402836 38.98168945 145.01785278 C38.98057663 145.81574722 38.97946381 146.61364166 38.97831726 147.43571472 C38.92976971 153.02289752 38.92976971 153.02289752 37.8137207 154.13894653 C33.02360963 154.45425525 28.23108675 154.49571324 23.43164062 154.54397583 C21.81651424 154.56555411 20.20150475 154.59965601 18.58691406 154.64651489 C16.25964104 154.71347135 13.9347893 154.74096355 11.60668945 154.76004028 C10.5268 154.80178627 10.5268 154.80178627 9.4250946 154.84437561 C7.37304688 154.83596802 7.37304688 154.83596802 3.8137207 154.13894653 C-3.60130479 146.5523631 -4.78018608 134.29692619 -4.70043945 124.21096802 C-4.70756454 123.08571716 -4.71468964 121.96046631 -4.72203064 120.80111694 C-4.74116375 117.12057435 -4.73305971 113.44061539 -4.7253418 109.76004028 C-4.73526047 107.18036571 -4.74720614 104.60069821 -4.76107788 102.02104187 C-4.79005234 95.94295854 -4.8030178 89.86506014 -4.80665433 83.78691489 C-4.81372099 72.26472502 -4.84930939 60.742704 -4.90009689 49.22062874 C-4.91261818 45.45233763 -4.9119297 41.68421637 -4.90982056 37.91590881 C-4.9164052 35.58978141 -4.92341231 33.26365516 -4.9309082 30.93753052 C-4.92678421 29.90189468 -4.92266022 28.86625885 -4.91841125 27.79924011 C-4.95090816 21.86936053 -5.52544185 16.34115254 -6.73944664 10.5332346 C-7.34107658 7.30948772 -7.39943399 4.40731846 -7.1862793 1.13894653 C-5.29004728 -0.75728549 -2.5225757 0.00997028 0 0 Z M-2.1862793 8.13894653 C-2.78256409 15.31905494 -2.78256409 15.31905494 -1.1862793 18.13894653 C-1.09054031 19.67491823 -1.05725921 21.21498589 -1.05497742 22.75393677 C-1.05096924 23.72669052 -1.04696106 24.69944427 -1.04283142 25.70167542 C-1.04336014 26.77281082 -1.04388885 27.84394623 -1.04443359 28.94754028 C-1.04095917 30.07293716 -1.03748474 31.19833405 -1.03390503 32.35783386 C-1.02653733 34.80944319 -1.02119737 37.26105923 -1.01761436 39.712677 C-1.01046017 43.59700957 -0.99479954 47.48121499 -0.97627258 51.36550903 C-0.92376657 62.4125277 -0.87542681 73.45948088 -0.86035156 84.50662231 C-0.85104264 91.25881747 -0.82086999 98.01068623 -0.77903175 104.76275635 C-0.76674027 107.33343101 -0.76159709 109.90415044 -0.76383018 112.47485352 C-0.76619157 116.08197575 -0.74394917 119.68819642 -0.71630859 123.29519653 C-0.72291 124.35013809 -0.72951141 125.40507965 -0.73631287 126.49198914 C-0.65575221 132.92327394 -0.03889825 141.28632758 4.8137207 146.13894653 C7.10523488 146.22685628 9.39944595 146.24588692 11.69262695 146.23660278 C12.3792894 146.23518784 13.06595184 146.23377289 13.77342224 146.23231506 C15.97439871 146.22670132 18.17527479 146.2141466 20.3762207 146.20144653 C21.86515153 146.1964333 23.35408394 146.19187009 24.84301758 146.18777466 C28.49995145 146.17672746 32.15682629 146.15945366 35.8137207 146.13894653 C35.84259306 142.32646227 35.86047562 138.51400583 35.8762207 134.70144653 C35.88878906 133.06852661 35.88878906 133.06852661 35.90161133 131.40261841 C35.90483398 130.36814575 35.90805664 129.3336731 35.91137695 128.26785278 C35.91661377 127.30951538 35.92185059 126.35117798 35.92724609 125.36380005 C36.064252 123.16609314 36.064252 123.16609314 34.8137207 122.13894653 C27.2237207 122.13894653 19.6337207 122.13894653 11.8137207 122.13894653 C11.8137207 92.10894653 11.8137207 62.07894653 11.8137207 31.13894653 C19.0737207 31.13894653 26.3337207 31.13894653 33.8137207 31.13894653 C33.1537207 23.54894653 32.4937207 15.95894653 31.8137207 8.13894653 C20.5937207 8.13894653 9.3737207 8.13894653 -2.1862793 8.13894653 Z " fill="#3E8026" transform="translate(72.186279296875,18.861053466796875)"/>
<path d="M0 0 C19.14 0 38.28 0 58 0 C58 7.92 58 15.84 58 24 C50.41 24 42.82 24 35 24 C35 40.17 35 56.34 35 73 C31.04 73 27.08 73 23 73 C22.67 57.16 22.34 41.32 22 25 C14.74 24.67 7.48 24.34 0 24 C0 16.08 0 8.16 0 0 Z " fill="#C2E3A0" transform="translate(136,97)"/>
<path d="M0 0 C1.08590927 -0.00855011 1.08590927 -0.00855011 2.1937561 -0.01727295 C3.72876518 -0.0267362 5.2637947 -0.03326217 6.79882812 -0.03710938 C9.14749675 -0.0468066 11.49528731 -0.07781229 13.84375 -0.109375 C15.33332812 -0.11590569 16.82291252 -0.1211559 18.3125 -0.125 C19.01571381 -0.1373468 19.71892761 -0.1496936 20.44345093 -0.16241455 C25.30226474 -0.14022785 25.30226474 -0.14022785 27.68554688 1.54077148 C29.3498225 4.0478628 30.07032266 6.6356154 30.9140625 9.515625 C31.24664062 10.62550781 31.57921875 11.73539063 31.921875 12.87890625 C33.79010657 20.0404606 33.83253138 26.47226362 33.5390625 33.828125 C33.47235352 35.61621582 33.47235352 35.61621582 33.40429688 37.44042969 C32.83959702 51.06466406 31.84052798 64.66047426 30.87817383 78.26123047 C30.20454858 87.82240583 29.56719303 97.37299745 29.2265625 106.953125 C28.90820828 115.76497543 28.48998173 124.56760761 27.97805786 133.37023926 C27.89433529 134.83155669 27.81394283 136.29306907 27.73703003 137.75476074 C27.62933814 139.78752929 27.50832347 141.81957879 27.38671875 143.8515625 C27.31976807 145.02895996 27.25281738 146.20635742 27.18383789 147.41943359 C26.7890625 150.203125 26.7890625 150.203125 24.7890625 152.203125 C22.09224799 152.85646213 19.45352008 153.40967592 16.7265625 153.890625 C15.98083984 154.03306641 15.23511719 154.17550781 14.46679688 154.32226562 C12.58271725 154.66622567 10.68619139 154.94051026 8.7890625 155.203125 C7.08823897 153.50230147 7.6467905 151.37187378 7.6341095 149.10247803 C7.63926826 148.01534515 7.63926826 148.01534515 7.64453125 146.90625 C7.64688278 146.14652893 7.64923431 145.38680786 7.6516571 144.60406494 C7.72674353 136.28294627 8.29304343 128.00649167 8.90023804 119.71005249 C9.25471603 114.85584799 9.58833294 110.00021267 9.921875 105.14453125 C10.02785255 103.60675774 10.02785255 103.60675774 10.13597107 102.03791809 C11.02367339 88.99520498 11.74927396 75.94309202 12.4765625 62.890625 C12.54299957 61.70118286 12.60943665 60.51174072 12.67788696 59.28625488 C13.05139316 52.59204866 13.42205932 45.89769088 13.7890625 39.203125 C12.93356812 39.21098022 12.93356812 39.21098022 12.06079102 39.21899414 C9.49105927 39.23970721 6.92134503 39.2527669 4.3515625 39.265625 C3.45373047 39.27400391 2.55589844 39.28238281 1.63085938 39.29101562 C0.34985352 39.29584961 0.34985352 39.29584961 -0.95703125 39.30078125 C-1.74779053 39.30601807 -2.5385498 39.31125488 -3.35327148 39.31665039 C-5.2109375 39.203125 -5.2109375 39.203125 -6.2109375 38.203125 C-6.73663673 34.85022652 -6.97455905 31.45792138 -7.2734375 28.078125 C-7.36214111 27.08723877 -7.45084473 26.09635254 -7.54223633 25.07543945 C-8.21231201 17.13668088 -8.72437414 9.16736311 -8.2109375 1.203125 C-6.2738356 -0.7339769 -2.64294007 0.0158812 0 0 Z M-4.2109375 8.203125 C-4.28513466 17.40535098 -4.28513466 17.40535098 -3.7109375 26.453125 C-3.5459375 28.020625 -3.3809375 29.588125 -3.2109375 31.203125 C3.7190625 31.203125 10.6490625 31.203125 17.7890625 31.203125 C17.64283447 33.59812256 17.49660645 35.99312012 17.34594727 38.46069336 C16.85883245 46.4393635 16.3719259 54.41804635 15.88511753 62.39673519 C15.59042063 67.22665433 15.29565702 72.05656937 15.00073242 76.88647461 C14.7152737 81.56140215 14.43000137 86.23634103 14.14484978 90.91128731 C14.03688924 92.68074498 13.92886537 94.45019879 13.82077217 96.21964836 C13.52269679 101.09941474 13.22573802 105.97924613 12.93083382 110.85920525 C12.8348895 112.44546254 12.73863193 114.03170092 12.64208794 115.61792183 C12.50054414 117.94704031 12.3604367 120.27624105 12.22070312 122.60546875 C12.17840356 123.29770507 12.13610399 123.98994139 12.09252262 124.70315456 C11.80287203 129.56852228 11.68266104 134.39256264 11.7265625 139.265625 C11.73107422 139.95205078 11.73558594 140.63847656 11.74023438 141.34570312 C11.75155733 142.96488596 11.76945021 144.58402135 11.7890625 146.203125 C13.67625 145.9865625 13.67625 145.9865625 15.6015625 145.765625 C16.30925781 145.68441406 17.01695313 145.60320312 17.74609375 145.51953125 C19.98302643 145.23141765 19.98302643 145.23141765 22.7890625 144.203125 C24.21241401 133.34545267 25.15943945 122.56332771 25.62359619 111.62380981 C25.80687707 107.31497095 26.01033754 103.00709531 26.21484375 98.69921875 C26.2580072 97.78603378 26.30117065 96.87284882 26.34564209 95.93199158 C26.69546886 88.71741711 27.1246947 81.50927792 27.58203125 74.30078125 C27.65064865 73.21534027 27.71926605 72.12989929 27.78996277 71.01156616 C28.06247422 66.7221605 28.33655993 62.43289975 28.62130737 58.14428711 C29.06248123 51.49950861 29.46503768 44.85471275 29.7890625 38.203125 C29.82946655 37.39881042 29.86987061 36.59449585 29.91149902 35.76580811 C30.01063621 33.53510418 30.0749381 31.30650689 30.125 29.07421875 C30.15899902 27.85532959 30.19299805 26.63644043 30.22802734 25.38061523 C29.75804695 19.61774896 29.75804695 19.61774896 25.7890625 8.203125 C15.8890625 8.203125 5.9890625 8.203125 -4.2109375 8.203125 Z " fill="#3F8026" transform="translate(8.2109375,18.796875)"/>
<path d="M0 0 C15.18 0 30.36 0 46 0 C48.9444017 8.83320511 50.58677727 14.25192424 50.390625 23.015625 C50.38496521 23.99746765 50.37930542 24.9793103 50.37347412 25.99090576 C50.35136901 29.07780086 50.30122478 32.16346535 50.25 35.25 C50.22990146 37.3632643 50.21165664 39.47654708 50.1953125 41.58984375 C50.15158962 46.72702508 50.08274725 51.86330512 50 57 C44.06 57.495 44.06 57.495 38 58 C38 46.12 38 34.24 38 22 C25.79 22 13.58 22 1 22 C0 14 0 14 0 0 Z " fill="#A4D76E" transform="translate(140,27)"/>
<path d="M0 0 C0.78552246 0.01047363 1.57104492 0.02094727 2.38037109 0.03173828 C3.23115234 0.03818359 4.08193359 0.04462891 4.95849609 0.05126953 C6.29267578 0.07640625 6.29267578 0.07640625 7.65380859 0.10205078 C8.99958984 0.11558594 8.99958984 0.11558594 10.37255859 0.12939453 C12.59157445 0.15300108 14.81005937 0.18592768 17.02880859 0.22705078 C18.43417255 3.03777868 18.15153959 5.35868906 18.14906311 8.5038147 C18.14991754 9.15480837 18.15077196 9.80580205 18.15165228 10.4765228 C18.15330526 12.66764437 18.14778868 14.85869013 18.14233398 17.04980469 C18.14205205 18.61658222 18.14220997 20.18335988 18.14277649 21.75013733 C18.14306421 26.01229116 18.13717156 30.27441703 18.13020253 34.53656435 C18.12396479 38.98754009 18.12336486 43.43851642 18.12217712 47.88949585 C18.11906505 56.32197726 18.11085333 64.75444576 18.10082763 73.18692148 C18.08966265 82.78533244 18.08415507 92.38374401 18.0791322 101.98215985 C18.06867062 121.73046424 18.05087289 141.47875624 18.02880859 161.22705078 C12.08880859 161.22705078 6.14880859 161.22705078 0.02880859 161.22705078 C0.02294235 159.54401352 0.01707611 157.86097626 0.0110321 156.12693787 C-0.04631713 140.22335911 -0.11896847 124.31992598 -0.20690632 108.41648769 C-0.25172308 100.24145745 -0.29116961 92.0664694 -0.31762695 83.89135742 C-0.34072214 76.75945512 -0.37424675 69.62768794 -0.41989297 62.49589306 C-0.44367123 58.72552324 -0.46250012 54.95528595 -0.46880531 51.18484306 C-0.47492686 47.62329508 -0.49517512 44.06208552 -0.52546692 40.50066376 C-0.53821437 38.59633343 -0.53669672 36.69192357 -0.5344696 34.78755188 C-0.61650634 27.11029685 -1.60114796 20.13480879 -3.33014202 12.68989658 C-3.99672916 9.08909991 -4.22016004 5.87987753 -3.97119141 2.22705078 C-1.97119141 0.22705078 -1.97119141 0.22705078 0 0 Z M0.02880859 8.22705078 C0.76676497 11.1836882 0.76676497 11.1836882 1.58141994 14.1195488 C2.14282958 16.76416646 2.16981744 19.24272631 2.18702698 21.94708252 C2.20171021 23.69706039 2.20171021 23.69706039 2.21669006 25.48239136 C2.22244553 26.75841217 2.22820099 28.03443298 2.23413086 29.34912109 C2.24371329 30.70930273 2.25372358 32.0694814 2.26412964 33.42965698 C2.29114528 37.11936616 2.3121729 40.80908809 2.33213162 44.49884129 C2.3540118 48.35592021 2.38139055 52.21295999 2.40818787 56.07000732 C2.45808728 63.37262514 2.50303631 70.67526472 2.54621023 77.97792506 C2.59560612 86.2922748 2.65051553 94.60658527 2.70588982 102.92089701 C2.81966763 120.02291218 2.92632024 137.12496436 3.02880859 154.22705078 C6.98880859 154.22705078 10.94880859 154.22705078 15.02880859 154.22705078 C15.02880859 106.04705078 15.02880859 57.86705078 15.02880859 8.22705078 C10.07880859 8.22705078 5.12880859 8.22705078 0.02880859 8.22705078 Z " fill="#3D7F25" transform="translate(45.97119140625,15.77294921875)"/>
<path d="M0 0 C0.78552246 0.01047363 1.57104492 0.02094727 2.38037109 0.03173828 C3.23115234 0.03818359 4.08193359 0.04462891 4.95849609 0.05126953 C6.29267578 0.07640625 6.29267578 0.07640625 7.65380859 0.10205078 C8.99958984 0.11558594 8.99958984 0.11558594 10.37255859 0.12939453 C12.59157445 0.15300108 14.81005937 0.18592768 17.02880859 0.22705078 C18.43417255 3.03777868 18.15153959 5.35868906 18.14906311 8.5038147 C18.14991754 9.15480837 18.15077196 9.80580205 18.15165228 10.4765228 C18.15330526 12.66764437 18.14778868 14.85869013 18.14233398 17.04980469 C18.14205205 18.61658222 18.14220997 20.18335988 18.14277649 21.75013733 C18.14306421 26.01229116 18.13717156 30.27441703 18.13020253 34.53656435 C18.12396479 38.98754009 18.12336486 43.43851642 18.12217712 47.88949585 C18.11906505 56.32197726 18.11085333 64.75444576 18.10082763 73.18692148 C18.08966265 82.78533244 18.08415507 92.38374401 18.0791322 101.98215985 C18.06867062 121.73046424 18.05087289 141.47875624 18.02880859 161.22705078 C12.08880859 161.22705078 6.14880859 161.22705078 0.02880859 161.22705078 C0.02294235 159.54401352 0.01707611 157.86097626 0.0110321 156.12693787 C-0.04631713 140.22335911 -0.11896847 124.31992598 -0.20690632 108.41648769 C-0.25172308 100.24145745 -0.29116961 92.0664694 -0.31762695 83.89135742 C-0.34072214 76.75945512 -0.37424675 69.62768794 -0.41989297 62.49589306 C-0.44367123 58.72552324 -0.46250012 54.95528595 -0.46880531 51.18484306 C-0.47492686 47.62329508 -0.49517512 44.06208552 -0.52546692 40.50066376 C-0.53821437 38.59633343 -0.53669672 36.69192357 -0.5344696 34.78755188 C-0.61650634 27.11029685 -1.60114796 20.13480879 -3.33014202 12.68989658 C-3.99672916 9.08909991 -4.22016004 5.87987753 -3.97119141 2.22705078 C-1.97119141 0.22705078 -1.97119141 0.22705078 0 0 Z M0.02880859 8.22705078 C0.02880859 9.54705078 0.02880859 10.86705078 0.02880859 12.22705078 C0.68880859 12.22705078 1.34880859 12.22705078 2.02880859 12.22705078 C2.35880859 59.08705078 2.68880859 105.94705078 3.02880859 154.22705078 C6.98880859 154.22705078 10.94880859 154.22705078 15.02880859 154.22705078 C15.02880859 106.04705078 15.02880859 57.86705078 15.02880859 8.22705078 C10.07880859 8.22705078 5.12880859 8.22705078 0.02880859 8.22705078 Z " fill="#3D7F25" transform="translate(111.97119140625,15.77294921875)"/>
</svg>
